inDegrees=no
num_controls=7
num_derivatives=13
num_iterations=137
num_multipliers=7
num_parameters=0
num_slacks=7
num_states=26
objective=5.471581
objective_accelerations=0.667029
objective_balance=0.034848
objective_effort=0.352107
objective_height=4.351737
objective_ligament=0.065860
solver_duration=1524.952635
status=Solve_Succeeded
success=true
DataType=double
version=3
OpenSimVersion=4.4-2022-07-23-0e9fedc
endheader
time	/jointset/ground_pelvis/pelvis_tilt/value	/jointset/ground_pelvis/pelvis_tx/value	/jointset/ground_pelvis/pelvis_ty/value	/jointset/hip_l/hip_flexion_l/value	/jointset/hip_l/hip_adduction_l/value	/jointset/hip_l/hip_rotation_l/value	/jointset/back/lumbar_extension/value	/jointset/patellofemoral_l/patellar_flexion_l/value	/jointset/knee_l/knee_flexion_l/value	/jointset/knee_l/knee_adduction_l/value	/jointset/knee_l/knee_rotation_l/value	/jointset/ankle_l/ankle_angle_l/value	/jointset/subtalar_l/subtalar_angle_l/value	/jointset/ground_pelvis/pelvis_tilt/speed	/jointset/ground_pelvis/pelvis_tx/speed	/jointset/ground_pelvis/pelvis_ty/speed	/jointset/hip_l/hip_flexion_l/speed	/jointset/hip_l/hip_adduction_l/speed	/jointset/hip_l/hip_rotation_l/speed	/jointset/back/lumbar_extension/speed	/jointset/patellofemoral_l/patellar_flexion_l/speed	/jointset/knee_l/knee_flexion_l/speed	/jointset/knee_l/knee_adduction_l/speed	/jointset/knee_l/knee_rotation_l/speed	/jointset/ankle_l/ankle_angle_l/speed	/jointset/subtalar_l/subtalar_angle_l/speed	/forceset/tau_hip_flexion_l	/forceset/tau_hip_adduction_l	/forceset/tau_hip_rotation_l	/forceset/tau_knee_flexion_l	/forceset/tau_ankle_angle_l	/forceset/tau_subtalar_angle_l	/forceset/tau_lumbar_extension	lambda_cid13_p0	lambda_cid13_p1	lambda_cid13_p2	lambda_cid13_p3	lambda_cid13_p4	lambda_cid13_p5	lambda_cid14_p0	/jointset/ground_pelvis/pelvis_tilt/accel	/jointset/ground_pelvis/pelvis_tx/accel	/jointset/ground_pelvis/pelvis_ty/accel	/jointset/hip_l/hip_flexion_l/accel	/jointset/hip_l/hip_adduction_l/accel	/jointset/hip_l/hip_rotation_l/accel	/jointset/back/lumbar_extension/accel	/jointset/patellofemoral_l/patellar_flexion_l/accel	/jointset/knee_l/knee_flexion_l/accel	/jointset/knee_l/knee_adduction_l/accel	/jointset/knee_l/knee_rotation_l/accel	/jointset/ankle_l/ankle_angle_l/accel	/jointset/subtalar_l/subtalar_angle_l/accel	gamma_cid13_p0	gamma_cid13_p1	gamma_cid13_p2	gamma_cid13_p3	gamma_cid13_p4	gamma_cid13_p5	gamma_cid14_p0
1	-0.7701920516565307	-0.1968041965601471	0.5746937903707823	2.024929431457414	-0.4729780181081714	-0.08041029380927485	-0.2617947060835001	1.094301001133812	1.094301001133693	-0.1581493017879414	-0.174529904999087	-0.0869551870177625	-0.1674524781017181	-0.02380685121043927	0.007699701133592741	0.004712913892157009	0.002857457815912825	-0.001846823368950192	0.001409735664480033	-7.113560337806015e-05	-0.007322638766968085	-0.007322638766966667	-0.008113513306658337	-1.772151084043711e-05	0.0124147792351371	0.003593646535920709	-0.4419921679040067	0.006410394167118608	-0.003295658733097414	-0.19192508529516	0.1720882791290429	0.07958657281497618	0.3518084637065504	13.03700380597942	-37.23741017267494	6.046534295758948	-4.707552558735786	-646.6680060979379	-39.07043401057987	-12.53931996737776	2.456220541901194	0.6282177883115457	1.866008755116262	-7.343648861457793	0.1385754590669441	-2.004927823422215	-0.02828326231087556	-4.142658030235688	-4.142658030235591	-0.1813893926610153	-0.01786939150474984	0.2709344831507612	0.2809216322693395	-8.230740980106805e-10	3.204072334717774e-09	-1.570665552118103e-09	5.327100396519412e-09	-4.818747316018403e-09	5.100420514100967e-09	5.295566415315289e-10
1.01	-0.7703086545036617	-0.1966958174238643	0.5748340949645647	2.02459241640116	-0.4729886768227872	-0.08049648955834292	-0.2617953577918234	1.094020633818715	1.094020633818696	-0.1582379601416998	-0.1745301023034416	-0.08681727779661655	-0.1674015233847705	0.0004911725266531268	0.01398770096038644	0.02334665909515021	-0.07026409161890725	-0.000283296177489514	-0.01864371530453762	-5.949601934723046e-05	-0.04873648302143199	-0.04873648302142542	-0.009615220422899112	-2.335846685263265e-05	0.01518272156869919	0.006605849824629248	-0.4417915287802807	0.006277200421347801	-0.003295035907635452	-0.192114100858541	0.1725097590064141	0.07961493786496687	0.3517048181167309	13.17899012337105	-37.28842265209443	6.070467329563785	-5.009875109952093	-646.622402506184	-39.14444332012019	-12.55214895142243	2.417326098424116	0.6308273727302333	1.861853402768426	-7.296952375433511	0.1654861533059784	-2.004782095766236	0.01584407313067472	-4.138595258503757	-4.138595258502825	-0.1341232859236734	0.007849713898006828	0.2820725174765474	0.3126524621192747	-4.22805277089693e-09	-5.967433303629621e-09	9.951785939984238e-09	3.894423879729723e-10	-1.061350551295336e-08	3.015875762447376e-08	-5.834937074641854e-09
1.02	-0.7701821305516843	-0.1965242110307392	0.5751606962103538	2.023524076972345	-0.4729836513046633	-0.08078306548950352	-0.2617959018034308	1.093326558533978	1.093326558534094	-0.1583415479496212	-0.174530403865037	-0.08665121947032033	-0.1673201900779467	0.0248185086161882	0.02034515250202286	0.0419722442931818	-0.143407416691287	0.001290023178777976	-0.03866630075854324	-4.959626048372388e-05	-0.09006423269399065	-0.09006423269398076	-0.01109940413185817	-3.857296096207183e-05	0.01804460026295107	0.009669364511240784	-0.4415908896566186	0.006144006675622276	-0.003294413082484275	-0.1923031164218992	0.1729312388838075	0.0796433029150161	0.3516011725268141	13.31900202622122	-37.34048980807398	6.096168266802882	-5.336703955880091	-646.6249301071755	-39.22075341297844	-12.58284005309156	2.462083012390108	0.642108131279858	1.864376754123825	-7.34800398896963	0.1405338920284335	-1.998754720419647	-0.02863122734500351	-4.125439113854646	-4.125439113854911	-0.1778847112045814	-0.01978489912395951	0.2897217552883162	0.2911839118498841	-7.395638991313515e-09	-1.451558118525551e-08	2.133564040227955e-08	-4.31987321494127e-09	-1.619874631777713e-08	5.386016723641846e-08	-1.184881472035097e-08
1.03	-0.7698121937857835	-0.1962886628687457	0.5756734364975702	2.021724358270581	-0.4729628177281011	-0.08126963874991816	-0.2617963402660656	1.092219699074312	1.09221969907448	-0.1584599197583398	-0.1745309040465317	-0.08645615469587278	-0.1672079751474548	0.04917299357927261	0.02677806469990726	0.06056689622241505	-0.2165233539187727	0.002882272992886077	-0.05863570411543064	-3.676902376331034e-05	-0.1312868899354184	-0.1312868899354186	-0.01257259861218608	-6.151901759908838e-05	0.02097645910670904	0.01278280697049442	-0.4409853609889368	0.006062787684675884	-0.003298848764114341	-0.1924928556230548	0.1732795156797426	0.07968874673975872	0.3512303909750779	13.4529791315	-37.40082179671234	6.125361680722744	-5.660900626658647	-646.3377929780196	-39.38264694225482	-12.63140192625795	2.422751146075456	0.6459186500725664	1.855667482693828	-7.291445986321297	0.1694097554899814	-1.994147479615269	0.01643878309289273	-4.117560025553047	-4.11756002555416	-0.1316899028662651	0.00645274271642096	0.296133750932001	0.3228021501584624	-1.056080283976612e-08	-2.305736827344547e-08	3.271808060916866e-08	-9.026858793308245e-09	-2.178184919002832e-08	7.754773064939959e-08	-1.785911465105535e-08
1.04	-0.7691985881887298	-0.195988378407566	0.5763718549181538	2.019193868717184	-0.4729258938075235	-0.08195552891115999	-0.261796610639443	1.09070123684298	1.090701236843218	-0.1585929541291739	-0.1745316332481288	-0.08623152817258141	-0.1670643502449322	0.07355227485469829	0.03329241233925547	0.07910787096634155	-0.2895615870135574	0.004508091982519674	-0.078529680924007	-1.597843053212516e-05	-0.1723847870275195	-0.1723847870275358	-0.01403191654929058	-8.437700823057419e-05	0.02395695003094508	0.01595135891755575	-0.4403798323212798	0.005981568693746882	-0.003303284445937087	-0.1926825948242296	0.1736277924756679	0.07973419056451662	0.350859609423308	13.5850082339625	-37.46223688662312	6.156354711703884	-6.010581254787168	-646.0991906869223	-39.54725174726182	-12.69775859736946	2.46704227485865	0.6583952195724243	1.853641317062384	-7.332463162429341	0.1472477271336962	-1.983669410757211	-0.02703855604315099	-4.100487083989346	-4.100487083990813	-0.1751094025598137	-0.01976728592254502	0.2994481713836085	0.3022058094114383	-1.307683422782996e-08	-3.018700603475562e-08	4.356702634614791e-08	-1.342313114634386e-08	-2.655329383112786e-08	9.760765627581044e-08	-2.29907783634396e-08
1.05	-0.7683410377145872	-0.195622529740282	0.5772553422630897	2.015933532759927	-0.472872452859479	-0.08283982217224717	-0.2617966745402368	1.088772475051837	1.08877247505185	-0.1587404998621874	-0.1745324732369112	-0.08597692198882133	-0.1668887043878313	0.09796345702150643	0.03989210460901134	0.0975734397185456	-0.362476285636111	0.006197311239959528	-0.09830126829149556	1.796064203380792e-06	-0.21334145114248	-0.2133414511424918	-0.0154685888491852	-6.960575933162081e-05	0.02696637383905856	0.01919587438418648	-0.4393686040104985	0.005970552393801953	-0.003311308568225713	-0.1928601938961797	0.1738671253262477	0.07979403144190228	0.3502150630322125	13.69963760363828	-37.52811458456171	6.189494294002683	-6.339413534010263	-645.5668068423364	-39.79609161672282	-12.78191212243666	2.428997853804807	0.6629701476654867	1.840584600953419	-7.26657987209625	0.1823434052065953	-1.969765774079607	0.01597512058138213	-4.089332396132821	-4.089332396130808	-0.1266604207657771	0.01421856841829704	0.3020030648827539	0.3382833564261819	-1.557258022650666e-08	-3.727251412960078e-08	5.439930038094249e-08	-1.780969371108787e-08	-3.129937415250392e-08	1.17554218221391e-07	-2.809498469400136e-08
1.06	-0.7672392070855787	-0.1951902413669013	0.5783229992848791	2.011944928484454	-0.4728016028428318	-0.08392100378186984	-0.2617966027623426	1.086434931355367	1.086434931355157	-0.158902155173627	-0.1745327416656352	-0.08569215885110648	-0.1666800715878377	0.122408305836866	0.04658035355862379	0.1159418063367406	-0.4352152506557416	0.007989905703702338	-0.117907350632395	1.115729294118483e-05	-0.2541411680928076	-0.254141168092811	-0.0168538322315416	2.993501446117017e-05	0.02998834082145064	0.02254874749630148	-0.4383573756996188	0.005959536093904723	-0.003319332690619273	-0.1930377929681899	0.1741064581767973	0.07985387231932345	0.3495705166412247	13.81230042558641	-37.59504834693677	6.224401996675407	-6.694281333136016	-645.0843209526942	-40.04837551486192	-12.88376750628258	2.473775604569101	0.6761065555435692	1.834200890260524	-7.297316441844702	0.1679227683945886	-1.950568405438935	-0.02872120924249022	-4.069097651062851	-4.069097651063523	-0.1648236190520648	-0.002813380943197111	0.3019568062390908	0.3238773385084712	-1.741281486626769e-08	-4.257461811517405e-08	6.418221069716613e-08	-2.139691847556649e-08	-3.512190496733793e-08	1.325356319195799e-07	-3.199934643939824e-08
